<svg width="50" height="51" viewBox="0 0 50 51" fill="none" xmlns="http://www.w3.org/2000/svg">
<path d="M6.25 44.6184V7.11841H43.75V44.6184H6.25Z" fill="#FFD600"/>
<path d="M30.7687 35.1883C31.4896 36.3591 32.2729 37.481 33.9323 37.481C35.326 37.481 36.0573 36.7883 36.0573 35.8299C36.0573 34.6831 35.301 34.2758 33.7677 33.6081L32.9271 33.2497C30.501 32.2206 28.8875 30.931 28.8875 28.207C28.8875 25.6966 30.8094 23.7862 33.8125 23.7862C35.951 23.7862 37.4875 24.5268 38.5958 26.4664L35.9771 28.1404C35.401 27.1112 34.7781 26.706 33.8125 26.706C32.8271 26.706 32.2031 27.3279 32.2031 28.1404C32.2031 29.1445 32.8281 29.5508 34.2708 30.1727L35.1115 30.531C37.9708 31.7487 39.5833 32.9924 39.5833 35.7883C39.5833 38.8008 37.2042 40.4518 34.0104 40.4518C30.8865 40.4518 29.1125 38.8841 28.125 36.9435L30.7687 35.1883ZM18.7 35.2737C19.2271 36.2174 20.0281 36.9435 21.1802 36.9435C22.2823 36.9435 22.9167 36.5081 22.9167 34.8154V23.7852H26.3885V35.3487C26.3885 38.856 24.3542 40.4518 21.3833 40.4518C18.6989 40.4518 16.7614 38.6331 15.9719 36.9435L18.7 35.2737Z" fill="#000001"/>
</svg>
