<svg width="50" height="51" viewBox="0 0 50 51" fill="none" xmlns="http://www.w3.org/2000/svg">
<path d="M17.9208 20.4385L12.8094 23.2667C12.6177 23.3719 12.5 23.5677 12.5 23.7792V29.4385C12.5 29.65 12.6177 29.8448 12.8094 29.951L17.9219 32.7813C18.1125 32.8865 18.349 32.8865 18.5396 32.7813L23.651 29.951C23.8406 29.8448 23.9583 29.65 23.9583 29.4385V23.7792C23.9583 23.5677 23.8406 23.3729 23.649 23.2667L18.5385 20.4385C18.4427 20.3854 18.3354 20.3594 18.2292 20.3594C18.1219 20.3594 18.0156 20.3854 17.9198 20.4385H17.9208ZM44.2198 25.5333L43.3677 26.0042C43.3354 26.0219 43.3167 26.0542 43.3167 26.0896V27.0333C43.3167 27.0687 43.3365 27.101 43.3677 27.1188L44.2198 27.5906C44.2521 27.6083 44.2906 27.6083 44.3229 27.5906L45.175 27.1188C45.2062 27.101 45.226 27.0687 45.226 27.0333V26.0896C45.226 26.0542 45.2062 26.0219 45.174 26.0042L44.3219 25.5333C44.3062 25.524 44.2885 25.5198 44.2708 25.5198C44.2531 25.5198 44.2354 25.524 44.2198 25.5333Z" fill="#388E3C"/>
<path d="M37.2406 14.4406L34.7521 13.0521C34.674 13.0083 34.5781 13.0094 34.5011 13.0552C34.424 13.101 34.3761 13.1833 34.3761 13.2729L34.375 21.6604L32.0802 20.3906C31.9844 20.3375 31.8771 20.3114 31.7709 20.3114C31.6646 20.3114 31.5573 20.3375 31.4615 20.3906H31.4625L26.3511 23.2187C26.1594 23.3239 26.0417 23.5198 26.0417 23.7302V29.3896C26.0417 29.601 26.1594 29.7958 26.3511 29.9021L31.4636 32.7323C31.6542 32.8375 31.8906 32.8375 32.0813 32.7323L37.1927 29.9021C37.3823 29.7969 37.5 29.601 37.5 29.3896V14.8823C37.5 14.6989 37.4 14.5302 37.2406 14.4406ZM34.2354 28.0802L31.9125 29.3667C31.8261 29.4146 31.7188 29.4146 31.6323 29.3667L29.3084 28.0802C29.2198 28.0323 29.1667 27.9427 29.1667 27.8469V25.2739C29.1667 25.1781 29.2198 25.0896 29.3073 25.0406L31.6313 23.7552H31.6302C31.674 23.7312 31.7219 23.7198 31.7709 23.7198C31.8198 23.7198 31.8677 23.7323 31.9115 23.7552L34.2344 25.0406C34.3219 25.0896 34.375 25.1792 34.375 25.275V27.8479C34.375 27.9427 34.3219 28.0323 34.2354 28.0802Z" fill="#37474F"/>
<path d="M17.9208 20.4385L12.5 29.4385C12.5 29.65 12.6177 29.8448 12.8094 29.951L17.9219 32.7813C18.1125 32.8865 18.349 32.8865 18.5396 32.7813L23.9583 23.7792C23.9583 23.5677 23.8406 23.3729 23.649 23.2667L18.5385 20.4385C18.4427 20.3854 18.3354 20.3594 18.2292 20.3594C18.1219 20.3594 18.0156 20.3854 17.9198 20.4385" fill="#2E7D32"/>
<path d="M17.9208 20.4385L12.8094 23.2667C12.6177 23.3719 12.5 23.5677 12.5 23.7792L17.9208 32.7813C18.1115 32.8865 18.3479 32.8865 18.5385 32.7813L23.65 29.951C23.8406 29.8448 23.9583 29.65 23.9583 29.4385L18.5385 20.4385C18.4427 20.3854 18.3354 20.3594 18.2292 20.3594C18.1219 20.3594 18.0156 20.3854 17.9198 20.4385" fill="#4CAF50"/>
<path d="M49.6906 23.2188L44.5802 20.3907C44.4844 20.3376 44.3771 20.3115 44.2708 20.3115C44.1646 20.3115 44.0573 20.3376 43.9615 20.3907H43.9625L38.851 23.2188C38.6604 23.324 38.5417 23.524 38.5417 23.7428V29.3792C38.5417 29.5969 38.6604 29.798 38.851 29.9032L43.9635 32.7334C44.1552 32.8396 44.3896 32.8396 44.5812 32.7334L46.9385 31.4282C47.1542 31.3084 47.1531 30.999 46.9365 30.8803L41.8073 28.0813C41.7208 28.0324 41.6667 27.9417 41.6667 27.8438V25.2751C41.6667 25.1792 41.7188 25.0907 41.8021 25.0449L44.1302 23.7574H44.1292C44.1729 23.7334 44.2208 23.7219 44.2698 23.7219C44.3187 23.7219 44.3667 23.7344 44.4104 23.7574L46.7385 25.0459C46.8219 25.0917 46.874 25.1803 46.874 25.2761V27.3719C46.874 27.4615 46.9219 27.5449 47 27.5896C47.0781 27.6334 47.174 27.6334 47.2521 27.5886L49.75 26.1376C49.9042 26.048 50 25.8824 50 25.7032V23.7449C50 23.5251 49.8812 23.324 49.6906 23.2188ZM11.149 23.2188L6.03854 20.3907C5.94271 20.3376 5.83542 20.3115 5.72917 20.3115C5.62292 20.3115 5.51562 20.3376 5.41979 20.3907H5.42083L0.309375 23.2188C0.11875 23.324 0 23.524 0 23.7428V31.5188C0 31.6084 0.0479167 31.6917 0.126042 31.7365C0.204167 31.7803 0.3 31.7803 0.378125 31.7355L2.87604 30.2844C3.03021 30.1949 3.125 30.0292 3.125 29.8501V25.274C3.125 25.1782 3.17708 25.0896 3.26042 25.0438L5.58854 23.7563C5.63229 23.7324 5.68021 23.7209 5.72917 23.7209C5.77812 23.7209 5.82604 23.7334 5.86979 23.7563L8.19792 25.0449C8.28125 25.0907 8.33333 25.1792 8.33333 25.2751V29.8511C8.33333 30.0303 8.42812 30.1959 8.58333 30.2855L11.0812 31.7365C11.1594 31.7813 11.2552 31.7813 11.3333 31.7376C11.4104 31.6917 11.4583 31.6084 11.4583 31.5188V23.7438C11.4583 23.5251 11.3396 23.324 11.149 23.2188Z" fill="#37474F"/>
</svg>
