<svg version="1.1" id="Layer_1" xmlns="http://www.w3.org/2000/svg" xmlns:xlink="http://www.w3.org/1999/xlink" x="0px"
    y="0px" width="100%" viewBox="0 0 483 517" enable-background="new 0 0 483 517" xml:space="preserve">


    <path fill="#F7BE3B" opacity="1.000000" stroke="none" d="
M273.000000,0.999997 
	C275.042328,1.000000 277.084625,1.000000 279.225098,1.246651 
	C280.632629,2.441189 281.871246,3.510917 283.262207,4.318322 
	C298.850616,13.366840 314.467163,22.366972 330.067230,31.395489 
	C372.607971,56.015842 415.153351,80.628113 457.674377,105.282494 
	C465.495392,109.817261 473.210510,114.534760 480.915649,119.501877 
	C476.965271,122.526108 473.222656,125.469284 469.156647,127.863197 
	C450.825439,138.655823 432.402649,149.292786 413.763031,159.981155 
	C413.513214,159.976440 413.013855,159.970688 412.762573,159.743744 
	C377.282806,139.147522 342.070282,118.750633 306.815887,98.426262 
	C296.618622,92.547478 286.301392,86.876808 275.709229,81.218391 
	C258.455902,90.978149 241.488510,100.554054 224.617569,110.296936 
	C178.615356,136.862976 132.670959,163.529205 86.654510,190.070496 
	C80.922417,193.376648 74.893845,196.168762 68.691170,199.031158 
	C47.526814,186.852158 26.655119,174.873337 5.859347,162.764130 
	C4.315301,161.865036 3.316361,160.029785 2.312634,158.425049 
	C27.532869,143.818848 52.512413,129.431091 77.473976,115.012207 
	C105.615616,98.756371 133.736588,82.464752 161.874725,66.202866 
	C195.169601,46.960747 228.487671,27.758665 261.753632,8.466705 
	C265.639038,6.213417 269.257690,3.500063 273.000000,0.999997 
z" />
    <path fill="#E55B2D" opacity="1.000000" stroke="none" d="
M206.375000,518.000000 
	C194.212921,510.975800 182.454376,503.903107 170.629929,496.942352 
	C160.775146,491.141113 150.910568,485.349091 140.904343,479.817017 
	C137.878891,478.144318 138.019806,475.774475 138.020462,473.104248 
	C138.031723,427.668915 138.030624,382.233612 138.024750,336.798279 
	C138.020645,305.176666 138.005157,273.555023 138.140350,241.171814 
	C139.146378,239.642273 139.904877,238.698273 140.882263,238.132233 
	C162.875198,225.395386 184.892181,212.700073 206.930878,200.465988 
	C206.971085,224.879379 206.964630,248.823746 207.034561,272.767914 
	C207.040710,274.876709 207.546722,276.984070 208.061676,279.335815 
	C210.001999,280.627716 211.677643,281.716553 213.404083,282.717773 
	C234.277115,294.822601 255.157654,306.914490 276.021851,319.477112 
	C276.001984,343.843811 276.020294,367.743164 275.949463,391.642303 
	C275.943268,393.726288 275.350555,395.808594 274.791382,397.658386 
	C261.826599,390.001831 249.136566,382.516144 236.362625,375.176514 
	C227.333649,369.988708 218.190933,364.998871 208.914291,359.702026 
	C208.152695,360.882507 207.074677,362.280518 207.071732,363.680847 
	C206.982346,406.089844 206.987823,448.499054 207.008224,490.908234 
	C207.012238,499.220215 207.137985,507.532166 207.362183,516.064941 
	C207.986069,516.538086 208.455399,516.790344 208.924728,517.042664 
	C208.924728,517.042664 208.895584,517.526611 208.947784,517.763306 
	C208.250000,518.000000 207.500000,518.000000 206.375000,518.000000 
z" />


    <path fill="#EC8E24" opacity="1.000000" stroke="none" d="
M480.915649,119.501877 
	C481.849518,119.676666 482.724579,120.185425 483.799805,120.347092 
	C484.000000,133.354233 484.000000,146.708450 483.761017,160.869156 
	C483.354614,169.395309 483.078491,177.114944 483.073730,184.834717 
	C483.071838,187.889618 483.673279,190.944901 484.000000,194.000000 
	C484.000000,195.714355 484.000000,197.428711 484.000000,199.571533 
	C479.539062,202.312759 474.988129,204.468536 470.632874,206.965576 
	C452.178772,217.546036 433.782776,228.227875 414.795898,238.853668 
	C413.860901,238.528137 413.495483,238.221573 413.338928,237.572647 
	C413.698547,235.254898 413.977600,233.279709 413.980469,231.304108 
	C414.014954,207.531403 414.008545,183.758621 414.012848,159.985870 
	C432.402649,149.292786 450.825439,138.655823 469.156647,127.863197 
	C473.222656,125.469284 476.965271,122.526108 480.915649,119.501877 
z" />
    <path fill="#E55B2D" opacity="1.000000" stroke="none" d="
M1.000000,159.468658 
	C1.162196,158.895950 1.324391,158.791916 1.775298,158.658813 
	C3.316361,160.029785 4.315301,161.865036 5.859347,162.764130 
	C26.655119,174.873337 47.526814,186.852158 68.850632,199.394043 
	C69.529297,202.054504 69.913765,204.183914 69.917717,206.313995 
	C69.962685,230.548920 69.949539,254.783951 69.951927,279.018951 
	C67.432434,277.880890 64.803596,276.935181 62.410645,275.574554 
	C42.160671,264.060486 21.953737,252.470734 1.366942,240.951843 
	C1.000000,213.979111 1.000000,186.958206 1.000000,159.468658 
z" />
    <path fill="#FF8000" opacity="1.000000" stroke="none" d="
M484.000000,193.531342 
	C483.673279,190.944901 483.071838,187.889618 483.073730,184.834717 
	C483.078491,177.114944 483.354614,169.395309 483.761017,161.337814 
	C484.000000,171.687561 484.000000,182.375122 484.000000,193.531342 
z" />
    <path fill="#ED8E24" opacity="1.000000" stroke="none" d="
M70.318367,279.067017 
	C69.949539,254.783951 69.962685,230.548920 69.917717,206.313995 
	C69.913765,204.183914 69.529297,202.054504 69.162109,199.561920 
	C74.893845,196.168762 80.922417,193.376648 86.654510,190.070496 
	C132.670959,163.529205 178.615356,136.862976 224.617569,110.296936 
	C241.488510,100.554054 258.455902,90.978149 275.701355,81.676338 
	C276.017578,106.250481 275.985809,130.474411 276.048248,154.698120 
	C276.054138,156.979874 276.653046,159.260086 276.976624,161.541016 
	C276.716187,162.974274 276.231689,164.407074 276.228760,165.840866 
	C276.181824,188.658752 276.167450,211.476883 276.256836,234.294540 
	C276.263428,235.976685 277.119354,237.655533 277.386932,239.689545 
	C273.294739,241.700378 269.196411,243.004044 265.530823,245.073990 
	C246.300171,255.933380 227.179092,266.986725 208.013901,277.506714 
	C208.005219,253.431793 208.029861,229.822754 207.952393,206.214050 
	C207.945587,204.140549 207.269714,202.069229 206.904633,199.996918 
	C184.892181,212.700073 162.875198,225.395386 140.882263,238.132233 
	C139.904877,238.698273 139.146378,239.642273 138.112366,240.703705 
	C124.552338,248.522552 111.149666,256.019257 97.785080,263.583252 
	C88.723969,268.711639 79.716354,273.934479 70.318367,279.067017 
z" />
    <path fill="#E55B2D" opacity="1.000000" stroke="none" d="
M277.314362,161.688568 
	C276.653046,159.260086 276.054138,156.979874 276.048248,154.698120 
	C275.985809,130.474411 276.017578,106.250481 276.031311,81.568665 
	C286.301392,86.876808 296.618622,92.547478 306.815887,98.426262 
	C342.070282,118.750633 377.282806,139.147522 412.757965,160.215302 
	C413.046448,186.580872 413.088257,212.247955 413.130066,237.915009 
	C413.495483,238.221573 413.860901,238.528137 414.435974,238.948593 
	C412.865631,238.592361 410.877625,238.484421 409.335999,237.599136 
	C371.042480,215.608521 332.797821,193.532806 294.539490,171.480835 
	C288.923218,168.243622 283.281860,165.049942 277.314362,161.688568 
z" />
    <path fill="#ED8E24" opacity="1.000000" stroke="none" d="
M209.098984,359.920654 
	C218.190933,364.998871 227.333649,369.988708 236.362625,375.176514 
	C249.136566,382.516144 261.826599,390.001831 274.852570,397.979065 
	C275.515747,399.053040 275.878845,399.573059 276.241943,400.093079 
	C276.210602,417.758575 276.179260,435.424103 275.829346,453.897156 
	C275.340149,457.799103 275.298157,460.907257 274.970154,463.984924 
	C274.406311,469.275818 273.664093,474.547760 272.996735,479.827637 
	C272.996735,479.827637 272.711761,480.106201 272.124939,480.106293 
	C269.868896,481.276550 268.199738,482.446686 266.530548,483.616821 
	C266.530548,483.616821 266.486511,483.634399 266.092651,483.533752 
	C263.623047,484.816681 261.547333,486.200226 259.471619,487.583771 
	C259.471619,487.583771 259.434814,487.362213 259.062317,487.381104 
	C257.324280,488.445618 255.958694,489.491211 254.593140,490.536804 
	C254.593140,490.536835 254.525925,490.681824 254.144775,490.596283 
	C253.385864,490.897949 253.008102,491.285156 252.630356,491.672363 
	C252.630356,491.672363 252.555008,491.774506 252.135330,491.636597 
	C249.683807,492.881134 247.651962,494.263580 245.620117,495.646027 
	C245.620117,495.646027 245.542557,495.754364 245.119583,495.617920 
	C243.398758,496.521332 242.100891,497.561218 240.803040,498.601105 
	C240.803040,498.601105 240.662308,498.827026 240.176666,498.676514 
	C237.854462,499.718750 236.017899,500.911499 234.181335,502.104218 
	C234.181320,502.104218 234.147430,502.177307 233.736908,502.146606 
	C231.742722,503.288177 230.159042,504.460480 228.575378,505.632812 
	C228.575378,505.632812 228.513641,505.694122 228.101410,505.573517 
	C225.198685,507.009125 222.708191,508.565338 220.217682,510.121521 
	C220.217682,510.121521 220.189270,510.217987 219.778564,510.178192 
	C218.433182,510.953278 217.498474,511.768158 216.563782,512.583069 
	C216.563797,512.583069 216.503860,512.682129 216.076050,512.531372 
	C213.104202,513.254578 210.560165,514.128540 208.010941,514.533508 
	C208.003860,464.762604 207.988571,415.460571 208.046555,366.158691 
	C208.049011,364.078949 208.732681,361.999969 209.098984,359.920654 
z" />
    <path fill="#F7BE3B" opacity="1.000000" stroke="none" d="
M208.019943,277.972687 
	C227.179092,266.986725 246.300171,255.933380 265.530823,245.073990 
	C269.196411,243.004044 273.294739,241.700378 277.591095,240.017914 
	C277.988770,239.992661 278.005585,239.993912 278.190552,240.275864 
	C279.329559,240.965607 280.283630,241.373383 281.237701,241.781158 
	C296.380798,250.458679 311.521667,259.140137 326.668457,267.811218 
	C330.949707,270.262085 335.248260,272.682709 339.898743,275.672241 
	C341.244659,276.699188 342.230713,277.171112 343.216736,277.643005 
	C343.216736,277.643005 343.330688,277.642761 343.244446,278.065704 
	C342.093658,279.663910 341.239014,281.198883 339.933289,281.960724 
	C318.668030,294.368256 297.345703,306.677948 276.036255,319.009705 
	C255.157654,306.914490 234.277115,294.822601 213.404083,282.717773 
	C211.677643,281.716553 210.001999,280.627716 208.116638,279.056641 
	C207.960312,278.346710 207.990128,278.159698 208.019943,277.972687 
z" />
    <path fill="#EC8D23" opacity="1.000000" stroke="none" d="
M276.021851,319.477112 
	C297.345703,306.677948 318.668030,294.368256 339.933289,281.960724 
	C341.239014,281.198883 342.093658,279.663910 343.256836,278.121338 
	C343.928925,279.131287 344.996948,280.506622 345.002350,281.886108 
	C345.097992,306.477020 345.133972,331.069061 344.913788,355.658447 
	C344.897949,357.424866 343.222839,359.877045 341.619019,360.822571 
	C320.814209,373.087738 299.876984,385.128082 279.001465,397.273743 
	C278.092072,397.802856 277.454620,398.799408 276.466217,399.835632 
	C275.878845,399.573059 275.515747,399.053040 275.091461,398.212341 
	C275.350555,395.808594 275.943268,393.726288 275.949463,391.642303 
	C276.020294,367.743164 276.001984,343.843811 276.021851,319.477112 
z" />
    <path fill="#EC8D23" opacity="1.000000" stroke="none" d="
M273.382324,479.773102 
	C273.664093,474.547760 274.406311,469.275818 274.970154,463.984924 
	C275.298157,460.907257 275.340149,457.799103 275.733521,454.358032 
	C276.036560,461.289276 276.237610,468.569702 276.085968,475.842804 
	C276.058685,477.150269 274.577667,478.427429 273.382324,479.773102 
z" />
    <path fill="#EC8D23" opacity="1.000000" stroke="none" d="
M208.016113,515.002441 
	C210.560165,514.128540 213.104202,513.254578 216.019073,512.521240 
	C214.120392,514.039978 211.850876,515.418152 209.253052,516.919434 
	C208.455399,516.790344 207.986069,516.538086 207.519409,515.950806 
	C207.717484,515.436096 207.882172,515.231628 208.016113,515.002441 
z" />
    <path fill="#EC8D23" opacity="1.000000" stroke="none" d="
M220.564392,510.096802 
	C222.708191,508.565338 225.198685,507.009125 228.060120,505.559814 
	C225.924393,507.135162 223.417740,508.603607 220.564392,510.096802 
z" />
    <path fill="#EC8D23" opacity="1.000000" stroke="none" d="
M259.812195,487.522705 
	C261.547333,486.200226 263.623047,484.816681 266.068939,483.534271 
	C264.343689,484.910828 262.248230,486.186249 259.812195,487.522705 
z" />
    <path fill="#EC8D23" opacity="1.000000" stroke="none" d="
M245.944489,495.551086 
	C247.651962,494.263580 249.683807,492.881134 252.074127,491.619873 
	C250.378006,492.979431 248.323425,494.217773 245.944489,495.551086 
z" />
    <path fill="#EC8D23" opacity="1.000000" stroke="none" d="
M234.514099,502.064362 
	C236.017899,500.911499 237.854462,499.718750 240.045471,498.654266 
	C238.548904,499.863190 236.697891,500.943848 234.514099,502.064362 
z" />
    <path fill="#EC8D23" opacity="1.000000" stroke="none" d="
M266.859924,483.534973 
	C268.199738,482.446686 269.868896,481.276550 271.926208,480.121094 
	C270.606018,481.241608 268.897675,482.347382 266.859924,483.534973 
z" />
    <path fill="#EC8D23" opacity="1.000000" stroke="none" d="
M228.897766,505.554626 
	C230.159042,504.460480 231.742722,503.288177 233.698364,502.134918 
	C232.453598,503.261475 230.836884,504.368988 228.897766,505.554626 
z" />
    <path fill="#EC8D23" opacity="1.000000" stroke="none" d="
M254.863403,490.366608 
	C255.958694,489.491211 257.324280,488.445618 259.054810,487.493134 
	C257.991089,488.456329 256.562378,489.326385 254.863403,490.366608 
z" />
    <path fill="#EC8D23" opacity="1.000000" stroke="none" d="
M241.085587,498.490997 
	C242.100891,497.561218 243.398758,496.521332 245.055542,495.599548 
	C244.065689,496.605438 242.716919,497.493164 241.085587,498.490997 
z" />
    <path fill="#EC8D23" opacity="1.000000" stroke="none" d="
M216.826981,512.414307 
	C217.498474,511.768158 218.433182,510.953278 219.728790,510.171143 
	C219.089874,510.884399 218.090042,511.564972 216.826981,512.414307 
z" />
    <path fill="#EC8D23" opacity="1.000000" stroke="none" d="
M343.024963,277.385437 
	C342.230713,277.171112 341.244659,276.699188 340.138672,275.891052 
	C340.956848,276.079163 341.894989,276.603516 343.024963,277.385437 
z" />
    <path fill="#ED8E24" opacity="1.000000" stroke="none" d="
M281.066895,241.514648 
	C280.283630,241.373383 279.329559,240.965607 278.194763,240.281921 
	C278.974731,240.420074 279.935425,240.834122 281.066895,241.514648 
z" />
    <path fill="#EC8D23" opacity="1.000000" stroke="none" d="
M252.882965,491.622009 
	C253.008102,491.285156 253.385864,490.897949 254.065903,490.583313 
	C253.957321,490.961182 253.546448,491.266418 252.882965,491.622009 
z" />
    <path fill="#EC883C" opacity="1.000000" stroke="none" d="
M413.338928,237.572662 
	C413.088257,212.247955 413.046448,186.580872 413.009247,160.442245 
	C413.013855,159.970688 413.513214,159.976440 413.763031,159.981155 
	C414.008545,183.758621 414.014954,207.531403 413.980469,231.304108 
	C413.977600,233.279709 413.698547,235.254898 413.338928,237.572662 
z" />
    <path fill="#EE9238" opacity="1.000000" stroke="none" d="
M208.010941,514.533508 
	C207.882172,515.231628 207.717484,515.436096 207.364838,515.729980 
	C207.137985,507.532166 207.012238,499.220215 207.008224,490.908234 
	C206.987823,448.499054 206.982346,406.089844 207.071732,363.680847 
	C207.074677,362.280518 208.152695,360.882507 208.914291,359.702026 
	C208.732681,361.999969 208.049011,364.078949 208.046555,366.158691 
	C207.988571,415.460571 208.003860,464.762604 208.010941,514.533508 
z" />
    <path fill="#EE9238" opacity="1.000000" stroke="none" d="
M208.013901,277.506714 
	C207.990128,278.159698 207.960312,278.346710 207.875519,278.812927 
	C207.546722,276.984070 207.040710,274.876709 207.034561,272.767914 
	C206.964630,248.823746 206.971085,224.879379 206.930862,200.465973 
	C207.269714,202.069229 207.945587,204.140549 207.952393,206.214050 
	C208.029861,229.822754 208.005219,253.431793 208.013901,277.506714 
z" />
</svg>