<svg xmlns="http://www.w3.org/2000/svg" width="100" height="116">
  <g fill="none">
    <polygon fill="#AB2B4A" points="100.423 29.134 100.423 86.868 89.721 73.062 83.76 58.003 83.756 58.003 89.418 42.731"/>
    <polygon fill="#E87A68" points=".429 29.134 .429 86.868 9.889 73.481 17.092 58.003 17.096 58.003 9.773 43.319"/>
    <polygon fill="#D74D4E" points="83.756 58.003 52.241 60.003 17.092 58.003 31.76 29.134 50.426 .269 70.722 31.961"/>
    <polygon fill="#BD3246" points="100.423 29.134 83.756 58.003 50.426 .269"/>
    <polygon fill="#F19175" points="50.426 .269 17.092 58.003 .425 29.134"/>
    <polygon fill="#CF3942" points="83.756 58.003 72.365 82.931 50.426 115.737 27.849 81.83 17.092 58.003"/>
    <polygon fill="#E0625B" points="50.426 115.737 .425 86.868 17.092 58.003"/>
    <polygon fill="#9A244F" points="50.422 115.737 100.423 86.868 83.756 58.003"/>
  </g>
</svg>