<svg width="50" height="51" viewBox="0 0 50 51" fill="none" xmlns="http://www.w3.org/2000/svg">
<path d="M25 35.9364C11.5625 35.9364 1.04163 31.353 1.04163 25.5197C1.04163 19.6864 11.5625 15.103 25 15.103C38.4375 15.103 48.9583 19.6864 48.9583 25.5197C48.9583 31.353 38.4375 35.9364 25 35.9364ZM25 17.1864C11.875 17.1864 3.12496 21.4572 3.12496 25.5197C3.12496 29.5822 11.875 33.853 25 33.853C38.125 33.853 46.875 29.5822 46.875 25.5197C46.875 21.4572 38.125 17.1864 25 17.1864Z" fill="#80DEEA"/>
<path d="M15.7291 46.9782C14.6875 46.9782 13.8541 46.7698 13.0208 46.249C7.91665 43.3323 9.27081 31.9782 15.9375 20.3115C19.0625 14.8948 22.9166 10.3115 26.6666 7.39482C30.7291 4.26982 34.375 3.33232 36.875 4.79065C39.4791 6.24898 40.4166 9.89482 39.7916 14.999C39.1666 19.7907 37.0833 25.4157 33.9583 30.8323C30.8333 36.249 26.9791 40.8323 23.2291 43.749C20.5208 45.8323 17.9166 46.9782 15.7291 46.9782ZM34.2708 6.14482C32.6041 6.14482 30.4166 7.08232 28.0208 8.95732C24.4791 11.7698 20.8333 16.1448 17.8125 21.3532C11.25 32.7073 10.625 42.499 14.0625 44.4782C15.8333 45.5198 18.75 44.5823 21.9791 42.0823C25.5208 39.2698 29.1666 34.8948 32.1875 29.6865C35.2083 24.4782 37.1875 19.1657 37.8125 14.6865C38.3333 10.5198 37.7083 7.60315 35.9375 6.56148C35.4166 6.35315 34.8958 6.14482 34.2708 6.14482Z" fill="#80DEEA"/>
<path d="M34.375 46.9782C29.1667 46.9782 21.6667 40.624 16.0417 30.7282C9.27087 19.0615 7.9167 7.70735 13.0209 4.79068C18.125 1.87402 27.2917 8.64485 34.0625 20.3115C37.1875 25.7282 39.2709 31.3532 39.8959 36.1449C40.625 41.249 39.5834 44.7907 36.9792 46.3532C36.1459 46.7699 35.3125 46.9782 34.375 46.9782ZM14.0625 6.56152C10.625 8.54068 11.25 18.3324 17.8125 29.6865C24.375 41.0407 32.5 46.4574 35.9375 44.4782C37.7084 43.4365 38.3334 40.5199 37.8125 36.3532C37.1875 31.874 35.2084 26.5615 32.1875 21.3532C25.625 9.99902 17.5 4.58235 14.0625 6.56152Z" fill="#80DEEA"/>
<path d="M25 29.6864C27.3012 29.6864 29.1667 27.8209 29.1667 25.5197C29.1667 23.2185 27.3012 21.353 25 21.353C22.6989 21.353 20.8334 23.2185 20.8334 25.5197C20.8334 27.8209 22.6989 29.6864 25 29.6864Z" fill="#80DEEA"/>
</svg>
