<svg version="1.1" id="Layer_1" xmlns="http://www.w3.org/2000/svg" xmlns:xlink="http://www.w3.org/1999/xlink" x="0px" y="0px"
	 width="100%" viewBox="0 0 816 816" enable-background="new 0 0 816 816" xml:space="preserve">
<path fill="#007ACC" opacity="1.000000" stroke="none" 
	d="
M763.000000,817.000000 
	C508.666748,817.000000 254.833481,817.000000 1.000113,817.000000 
	C1.000000,681.000122 1.000000,545.000244 1.000000,409.000336 
	C1.000000,273.000366 1.000000,137.000427 1.000000,1.000235 
	C1.833176,1.000000 2.666353,1.000000 3.499529,1.000000 
	C274.666107,1.000000 545.832703,1.000000 816.999634,1.000000 
	C817.000000,1.499762 817.000000,1.999524 817.000000,2.499286 
	C817.000000,273.999207 817.000000,545.499084 817.000000,816.999512 
	C799.166687,817.000000 781.333313,817.000000 763.000000,817.000000 
M749.801880,668.248291 
	C752.648499,653.545227 752.722046,638.823364 750.510376,624.014038 
	C745.761108,592.214233 728.588440,568.921692 701.909973,551.883667 
	C679.065369,537.294128 654.131104,526.980042 629.649963,515.670471 
	C618.685791,510.605347 607.406921,505.250885 598.109497,497.749023 
	C578.165405,481.656586 583.602417,449.800629 606.835938,441.536102 
	C626.245544,434.631805 648.448853,440.994598 661.277954,457.188629 
	C663.965027,460.580505 666.547302,464.058289 669.092896,467.558319 
	C670.885010,470.022339 672.570923,470.385559 675.300110,468.548737 
	C691.185120,457.857727 707.207886,447.371552 723.145691,436.758545 
	C725.295715,435.326874 727.229675,433.570801 729.164551,432.043274 
	C719.963745,414.189392 700.430725,395.443542 683.347534,385.649902 
	C657.111145,370.608826 596.909302,367.929413 565.607605,384.713196 
	C544.222229,396.179901 528.146118,411.969818 518.441040,434.321472 
	C511.081055,451.272308 511.250824,468.984314 512.015869,486.871826 
	C512.914917,507.892700 521.331543,525.901062 534.307434,541.901611 
	C546.919189,557.453186 563.242920,568.426636 581.085449,577.032104 
	C602.365784,587.295715 624.041748,596.742249 645.273804,607.101196 
	C652.521484,610.637329 659.691772,615.049438 665.600037,620.474365 
	C681.348206,634.934265 679.309448,660.402161 661.811096,672.659119 
	C657.646851,675.575989 652.898804,678.159424 648.034485,679.496094 
	C615.689575,688.384216 587.390015,681.801331 564.554626,656.326172 
	C559.261475,650.421082 554.594177,643.955017 549.404053,637.452881 
	C529.983276,648.750793 510.598724,660.080200 491.144958,671.289429 
	C488.133667,673.024597 488.796509,674.978821 490.299286,676.992920 
	C498.443085,687.907593 505.458832,700.004578 515.103577,709.392578 
	C540.374329,733.990295 571.605530,746.457642 606.602539,749.279297 
	C631.655396,751.299194 656.547302,750.724487 680.618408,742.064148 
	C715.934875,729.357849 741.212280,707.196960 749.801880,668.248291 
M464.040314,377.183563 
	C443.712860,377.140839 423.385376,377.055298 403.057953,377.063141 
	C330.912506,377.090942 258.766998,377.194153 186.621719,377.102783 
	C181.682159,377.096527 179.975861,378.433258 180.019302,383.527618 
	C180.181259,402.519104 179.914230,421.514160 179.846542,440.507996 
	C179.842682,441.592377 180.180389,442.678009 180.423203,444.152039 
	C215.608780,444.152039 250.525482,444.152039 285.998749,444.152039 
	C285.998749,544.799805 285.998749,645.004578 285.998749,745.414795 
	C311.272369,745.414795 335.982849,745.414795 361.215485,745.414795 
	C361.215485,644.829712 361.215485,544.611511 361.215485,443.804688 
	C396.785736,443.804688 431.837097,443.804688 466.705933,443.804688 
	C466.705933,422.066803 466.726318,400.920532 466.632141,379.774811 
	C466.628326,378.921417 465.541412,378.072906 464.040314,377.183563 
z"/>
<path fill="#FEFEFF" opacity="1.000000" stroke="none" 
	d="
M749.715820,668.661926 
	C741.212280,707.196960 715.934875,729.357849 680.618408,742.064148 
	C656.547302,750.724487 631.655396,751.299194 606.602539,749.279297 
	C571.605530,746.457642 540.374329,733.990295 515.103577,709.392578 
	C505.458832,700.004578 498.443085,687.907593 490.299286,676.992920 
	C488.796509,674.978821 488.133667,673.024597 491.144958,671.289429 
	C510.598724,660.080200 529.983276,648.750793 549.404053,637.452881 
	C554.594177,643.955017 559.261475,650.421082 564.554626,656.326172 
	C587.390015,681.801331 615.689575,688.384216 648.034485,679.496094 
	C652.898804,678.159424 657.646851,675.575989 661.811096,672.659119 
	C679.309448,660.402161 681.348206,634.934265 665.600037,620.474365 
	C659.691772,615.049438 652.521484,610.637329 645.273804,607.101196 
	C624.041748,596.742249 602.365784,587.295715 581.085449,577.032104 
	C563.242920,568.426636 546.919189,557.453186 534.307434,541.901611 
	C521.331543,525.901062 512.914917,507.892700 512.015869,486.871826 
	C511.250824,468.984314 511.081055,451.272308 518.441040,434.321472 
	C528.146118,411.969818 544.222229,396.179901 565.607605,384.713196 
	C596.909302,367.929413 657.111145,370.608826 683.347534,385.649902 
	C700.430725,395.443542 719.963745,414.189392 729.164551,432.043274 
	C727.229675,433.570801 725.295715,435.326874 723.145691,436.758545 
	C707.207886,447.371552 691.185120,457.857727 675.300110,468.548737 
	C672.570923,470.385559 670.885010,470.022339 669.092896,467.558319 
	C666.547302,464.058289 663.965027,460.580505 661.277954,457.188629 
	C648.448853,440.994598 626.245544,434.631805 606.835938,441.536102 
	C583.602417,449.800629 578.165405,481.656586 598.109497,497.749023 
	C607.406921,505.250885 618.685791,510.605347 629.649963,515.670471 
	C654.131104,526.980042 679.065369,537.294128 701.909973,551.883667 
	C728.588440,568.921692 745.761108,592.214233 750.510376,624.014038 
	C752.722046,638.823364 752.648499,653.545227 749.715820,668.661926 
z"/>
<path fill="#FEFEFF" opacity="1.000000" stroke="none" 
	d="
M464.499756,377.202820 
	C465.541412,378.072906 466.628326,378.921417 466.632141,379.774811 
	C466.726318,400.920532 466.705933,422.066803 466.705933,443.804688 
	C431.837097,443.804688 396.785736,443.804688 361.215485,443.804688 
	C361.215485,544.611511 361.215485,644.829712 361.215485,745.414795 
	C335.982849,745.414795 311.272369,745.414795 285.998749,745.414795 
	C285.998749,645.004578 285.998749,544.799805 285.998749,444.152039 
	C250.525482,444.152039 215.608780,444.152039 180.423203,444.152039 
	C180.180389,442.678009 179.842682,441.592377 179.846542,440.507996 
	C179.914230,421.514160 180.181259,402.519104 180.019302,383.527618 
	C179.975861,378.433258 181.682159,377.096527 186.621719,377.102783 
	C258.766998,377.194153 330.912506,377.090942 403.057953,377.063141 
	C423.385376,377.055298 443.712860,377.140839 464.499756,377.202820 
z"/>
</svg>